<svg width="360" height="200" viewBox="0 0 360 200" fill="none" xmlns="http://www.w3.org/2000/svg">
<path d="M83.1216 40.522H83.1227H278.216C281.954 40.522 285.54 42.0071 288.183 44.6505L288.537 44.297L288.183 44.6505C290.826 47.294 292.312 50.8793 292.312 54.6177V173.269H68.9965V54.6177C68.9965 52.7642 69.3621 50.9288 70.0723 49.2167C70.7825 47.5046 71.8234 45.9494 73.1354 44.6401C74.4475 43.3308 76.0048 42.2932 77.7184 41.5865C79.432 40.8799 81.2681 40.5181 83.1216 40.522Z" fill="#292929" stroke="#D1D3D4"/>
<path d="M278.794 52.0092H82.5441V173.769H278.794V52.0092Z" fill="#7247EB"/>
<path d="M299.927 190.945H299.927C304.481 190.939 308.846 189.128 312.066 185.908C315.286 182.688 317.098 178.323 317.103 173.769L317.103 173.758C317.098 173.506 316.995 173.266 316.817 173.088C316.639 172.909 316.399 172.807 316.147 172.802V172.802H316.136H45.1921V172.802L45.1812 172.802C44.9285 172.807 44.6879 172.912 44.5111 173.092C44.3343 173.273 44.2353 173.516 44.2354 173.769L44.2354 173.769C44.2409 178.321 46.0508 182.685 49.2684 185.904C52.4861 189.124 56.8489 190.937 61.4007 190.945H61.4016H299.927Z" fill="#292929" stroke="#D1D3D4"/>
<path d="M202.639 173.769H158.7V177.818H202.639V173.769Z" fill="#1F1F1F"/>
<path d="M91.7197 64.1384C93.5303 64.1384 94.9982 62.6706 94.9982 60.8599C94.9982 59.0493 93.5303 57.5815 91.7197 57.5815C89.9091 57.5815 88.4413 59.0493 88.4413 60.8599C88.4413 62.6706 89.9091 64.1384 91.7197 64.1384Z" fill="#292929"/>
<path d="M102.824 64.1384C104.634 64.1384 106.102 62.6706 106.102 60.8599C106.102 59.0493 104.634 57.5815 102.824 57.5815C101.013 57.5815 99.5454 59.0493 99.5454 60.8599C99.5454 62.6706 101.013 64.1384 102.824 64.1384Z" fill="#292929"/>
<path d="M113.938 64.1384C115.749 64.1384 117.217 62.6706 117.217 60.8599C117.217 59.0493 115.749 57.5815 113.938 57.5815C112.127 57.5815 110.66 59.0493 110.66 60.8599C110.66 62.6706 112.127 64.1384 113.938 64.1384Z" fill="#292929"/>
<path fill-rule="evenodd" clip-rule="evenodd" d="M156.812 110.524C157.128 110.837 157.555 111.012 157.999 111.011C158.331 111.01 158.654 110.911 158.929 110.727C159.204 110.542 159.419 110.28 159.545 109.973C159.671 109.667 159.703 109.33 159.637 109.005C159.572 108.68 159.412 108.382 159.177 108.149L154 102.972L159.177 97.7958C159.492 97.4822 159.669 97.0563 159.67 96.6118C159.671 96.1673 159.495 95.7407 159.182 95.4257C158.868 95.1108 158.442 94.9333 157.998 94.9324C157.553 94.9314 157.127 95.1071 156.812 95.4207L151.63 100.602L146.448 95.4207C146.134 95.1071 145.707 94.9314 145.262 94.9324C144.818 94.9333 144.392 95.1108 144.078 95.4257C143.765 95.7407 143.589 96.1673 143.59 96.6118C143.591 97.0563 143.769 97.4822 144.084 97.7958L149.26 102.972L144.084 108.149C143.772 108.466 143.598 108.892 143.598 109.336C143.598 109.781 143.772 110.207 144.084 110.524C144.239 110.68 144.425 110.803 144.628 110.887C144.832 110.97 145.051 111.013 145.271 111.011C145.49 111.011 145.706 110.968 145.908 110.885C146.11 110.801 146.294 110.678 146.449 110.524L151.63 105.342L156.812 110.524Z" fill="#292929"/>
<path fill-rule="evenodd" clip-rule="evenodd" d="M215.425 110.887C215.629 110.97 215.847 111.013 216.067 111.011C216.399 111.01 216.722 110.911 216.997 110.727C217.273 110.542 217.487 110.28 217.613 109.973C217.739 109.667 217.771 109.33 217.706 109.005C217.64 108.68 217.48 108.382 217.245 108.149L212.094 102.998L217.295 97.7958C217.451 97.6405 217.575 97.456 217.66 97.2529C217.745 97.0497 217.788 96.8319 217.789 96.6118C217.789 96.3917 217.746 96.1737 217.663 95.9702C217.579 95.7667 217.456 95.5817 217.301 95.4257C217.145 95.2698 216.961 95.146 216.758 95.0613C216.555 94.9767 216.337 94.9328 216.117 94.9324C215.897 94.9319 215.679 94.9748 215.475 95.0586C215.272 95.1424 215.086 95.2654 214.931 95.4207L209.724 100.628L204.517 95.4207C204.361 95.2654 204.176 95.1424 203.972 95.0586C203.769 94.9748 203.551 94.9319 203.331 94.9324C203.111 94.9328 202.893 94.9767 202.69 95.0613C202.486 95.146 202.302 95.2698 202.147 95.4257C201.991 95.5817 201.868 95.7667 201.785 95.9702C201.701 96.1737 201.658 96.3917 201.658 96.6118C201.659 96.8319 201.703 97.0497 201.787 97.2529C201.872 97.456 201.996 97.6405 202.152 97.7958L207.354 102.998L202.202 108.149C201.967 108.383 201.806 108.682 201.741 109.008C201.676 109.334 201.709 109.671 201.836 109.978C201.964 110.285 202.179 110.547 202.456 110.731C202.733 110.915 203.058 111.012 203.39 111.011C203.609 111.011 203.825 110.968 204.027 110.885C204.229 110.801 204.413 110.678 204.567 110.524L209.724 105.368L214.88 110.524C215.036 110.68 215.221 110.803 215.425 110.887Z" fill="#292929"/>
<path d="M278.652 69.4062H82.6761C82.5415 69.4062 82.4124 69.3528 82.3172 69.2576C82.222 69.1624 82.1686 69.0333 82.1686 68.8987C82.1686 68.7641 82.222 68.6351 82.3172 68.5399C82.4124 68.4447 82.5415 68.3912 82.6761 68.3912H278.652C278.787 68.3912 278.916 68.4447 279.011 68.5399C279.106 68.6351 279.16 68.7641 279.16 68.8987C279.16 69.0333 279.106 69.1624 279.011 69.2576C278.916 69.3528 278.787 69.4062 278.652 69.4062Z" fill="#292929"/>
<path d="M122.789 139.685C122.281 139.749 121.767 139.618 121.351 139.319C120.935 139.02 120.647 138.575 120.546 138.073C120.444 137.571 120.536 137.049 120.804 136.611C121.071 136.174 121.494 135.855 121.987 135.716C140.543 127.824 160.5 123.757 180.664 123.757C200.828 123.757 220.786 127.824 239.341 135.716C239.591 135.822 239.818 135.975 240.009 136.168C240.199 136.361 240.35 136.589 240.452 136.841C240.554 137.092 240.606 137.361 240.605 137.632C240.603 137.903 240.548 138.171 240.443 138.421C240.337 138.671 240.184 138.898 239.991 139.088C239.798 139.279 239.569 139.43 239.318 139.532C239.067 139.634 238.798 139.686 238.527 139.684C238.256 139.683 237.988 139.628 237.738 139.522C219.688 131.849 200.277 127.894 180.664 127.894C161.051 127.894 141.64 131.849 123.591 139.522C123.336 139.626 123.064 139.681 122.789 139.685Z" fill="#292929"/>
<path d="M95.1707 103.815H31.5302C27.5502 103.815 24.3237 107.041 24.3237 111.021V145.186C24.3237 149.166 27.5502 152.393 31.5302 152.393H95.1707C99.1507 152.393 102.377 149.166 102.377 145.186V111.021C102.377 107.041 99.1507 103.815 95.1707 103.815Z" fill="#292929"/>
<path d="M95.1809 152.9H31.5302C29.4852 152.897 27.5246 152.084 26.0786 150.638C24.6325 149.192 23.8189 147.231 23.8162 145.186V111.021C23.8189 108.976 24.6325 107.016 26.0786 105.57C27.5246 104.124 29.4852 103.31 31.5302 103.307H95.1809C97.2259 103.31 99.1864 104.124 100.633 105.57C102.079 107.016 102.892 108.976 102.895 111.021V145.186C102.892 147.231 102.079 149.192 100.633 150.638C99.1864 152.084 97.2259 152.897 95.1809 152.9ZM31.5302 104.322C29.7543 104.325 28.052 105.032 26.7963 106.287C25.5405 107.543 24.8339 109.245 24.8312 111.021V145.186C24.8339 146.962 25.5405 148.664 26.7963 149.92C28.052 151.176 29.7543 151.882 31.5302 151.885H95.1809C96.9567 151.882 98.6591 151.176 99.9148 149.92C101.171 148.664 101.877 146.962 101.88 145.186V111.021C101.877 109.245 101.171 107.543 99.9148 106.287C98.6591 105.032 96.9567 104.325 95.1809 104.322H31.5302Z" fill="#D1D3D4"/>
<path d="M323.85 78.257H261.448C258.236 78.257 255.632 80.8609 255.632 84.073V105.804C255.632 109.016 258.236 111.62 261.448 111.62H323.85C327.062 111.62 329.666 109.016 329.666 105.804V84.073C329.666 80.8609 327.062 78.257 323.85 78.257Z" fill="#292929"/>
<path d="M323.86 112.117H261.448C259.772 112.115 258.165 111.448 256.98 110.262C255.794 109.077 255.127 107.47 255.125 105.794V84.073C255.127 82.3967 255.794 80.7899 256.98 79.6046C258.165 78.4193 259.772 77.7522 261.448 77.7495H323.86C325.537 77.7522 327.143 78.4193 328.329 79.6046C329.514 80.7899 330.181 82.3967 330.184 84.073V105.794C330.181 107.47 329.514 109.077 328.329 110.262C327.143 111.448 325.537 112.115 323.86 112.117ZM261.448 78.7645C260.04 78.7645 258.69 79.3238 257.694 80.3193C256.699 81.3148 256.14 82.6651 256.14 84.073V105.794C256.14 107.202 256.699 108.552 257.694 109.548C258.69 110.543 260.04 111.102 261.448 111.102H323.86C325.268 111.102 326.618 110.543 327.614 109.548C328.61 108.552 329.169 107.202 329.169 105.794V84.073C329.169 82.6651 328.61 81.3148 327.614 80.3193C326.618 79.3238 325.268 78.7645 323.86 78.7645H261.448Z" fill="#D1D3D4"/>
<path d="M71.6227 40.5295C71.5159 40.5303 71.412 40.4945 71.3284 40.428C71.2213 40.3471 71.1498 40.2278 71.129 40.0953C71.1082 39.9627 71.1396 39.8273 71.2167 39.7175C73.0336 37.2307 75.2767 33.6275 73.602 30.7652C73.5504 30.6735 73.4927 30.5853 73.4294 30.5013C71.584 32.7303 69.3904 34.6463 66.9334 36.1751C65.6334 37.1161 64.0342 37.5493 62.437 37.3931C62.0977 37.3244 61.7761 37.1872 61.4917 36.99C61.2072 36.7928 60.9659 36.5397 60.7825 36.2462C60.5495 35.8258 60.405 35.3623 60.3579 34.884C60.3107 34.4057 60.362 33.9228 60.5085 33.4651C60.5923 33.1392 60.7009 32.8203 60.8333 32.511C58.6983 34.6464 56.2844 36.4832 53.6572 37.9717C53.0894 38.337 52.4239 38.5211 51.749 38.4995C51.2068 38.3869 50.7158 38.1015 50.3498 37.686C49.9837 37.2705 49.7624 36.7475 49.719 36.1954C49.6622 35.2073 49.8726 34.2221 50.328 33.3433C52.114 29.4804 54.8832 26.1544 58.3585 23.698C61.8338 21.2416 65.8932 19.741 70.1307 19.3464C70.8858 17.4513 70.9894 15.3589 70.425 13.3985C70.1485 12.4439 69.6291 11.5773 68.9174 10.8835C68.2058 10.1896 67.3264 9.69228 66.365 9.44003C64.5299 9.22126 62.672 9.57582 61.0464 10.455C52.2967 14.4373 45.1449 21.2529 40.7464 29.8009C40.4053 30.3383 40.2224 30.961 40.2186 31.5975C40.2354 31.741 40.2808 31.8797 40.3523 32.0052C40.4238 32.1308 40.5199 32.2407 40.6348 32.3283C40.6939 32.3797 40.7638 32.4173 40.8393 32.4384C40.9147 32.4595 40.994 32.4635 41.0712 32.4501C41.2058 32.4245 41.3451 32.4535 41.4583 32.5305C41.5716 32.6076 41.6496 32.7266 41.6751 32.8612C41.7007 32.9957 41.6718 33.135 41.5947 33.2482C41.5176 33.3615 41.3987 33.4395 41.2641 33.4651C41.0422 33.5153 40.812 33.5168 40.5895 33.4695C40.3669 33.4222 40.1573 33.3272 39.975 33.191C39.5316 32.841 39.2435 32.3306 39.1732 31.77C39.1459 30.9324 39.3685 30.1056 39.8126 29.3949C44.3235 20.6305 51.6578 13.6431 60.6303 9.56183C62.3964 8.77013 64.4771 7.99873 66.5477 8.42503C67.6997 8.70522 68.7579 9.28301 69.6165 10.1006C70.4751 10.9182 71.1039 11.9469 71.44 13.0839C72.0207 15.1189 71.9462 17.2851 71.2269 19.2754C71.8968 19.2754 72.5667 19.2754 73.2569 19.2754C73.909 19.2793 74.5503 19.4431 75.1245 19.7524C76.444 20.5746 76.515 22.3204 76.444 23.2846C76.2365 25.5711 75.416 27.7592 74.0689 29.6182C74.2224 29.8071 74.3615 30.0073 74.485 30.2171C76.4541 33.5666 74.0384 37.5657 72.049 40.2859C72.0051 40.3599 71.9427 40.4213 71.868 40.464C71.7933 40.5067 71.7088 40.5292 71.6227 40.5295ZM69.6841 20.402C65.7121 20.8604 61.9251 22.3338 58.6879 24.6805C55.4506 27.0271 52.8722 30.1678 51.2009 33.8C50.8277 34.5164 50.6459 35.3171 50.6731 36.1244C50.6927 36.4561 50.8189 36.7726 51.0329 37.0268C51.2469 37.281 51.5372 37.4593 51.8607 37.5352C52.3306 37.5311 52.7892 37.39 53.1802 37.1292C57.3518 34.8658 60.7013 31.3539 63.929 27.9942C65.9996 25.68 68.324 23.2846 69.6841 20.402ZM68.8416 28.522C68.3235 28.5204 67.8066 28.5714 67.2988 28.6743C65.9615 28.9133 64.7144 29.5119 63.6916 30.406C62.6688 31.3001 61.9087 32.4559 61.493 33.7493C61.3822 34.0808 61.3385 34.4311 61.3647 34.7796C61.3908 35.1282 61.4862 35.468 61.6453 35.7793C61.7558 35.9597 61.9035 36.1146 62.0785 36.2336C62.2535 36.3526 62.4518 36.433 62.6603 36.4695C63.9825 36.5779 65.3008 36.2186 66.3853 35.4545C68.8071 33.9173 70.9547 31.9858 72.7392 29.74C71.6256 28.8795 70.2484 28.4311 68.8416 28.4713V28.522ZM68.8416 27.507C70.4703 27.4619 72.0649 27.978 73.3584 28.9686C74.5251 27.2865 75.2255 25.3253 75.3884 23.2846C75.3884 22.6959 75.3884 21.2546 74.5459 20.6964C74.1155 20.4772 73.6383 20.3657 73.1554 20.3716C72.3745 20.3259 71.5916 20.3259 70.8107 20.3716C69.4608 23.5485 67.0146 26.1571 64.8121 28.4916C65.5288 28.1409 66.2854 27.8785 67.0654 27.71C67.6403 27.565 68.2288 27.4799 68.8213 27.4563L68.8416 27.507Z" fill="#D1D3D4"/>
<path d="M39.9684 124.144C38.9044 124.144 38.0764 123.784 37.4844 123.064C36.8924 122.336 36.5964 121.268 36.5964 119.86C36.5964 118.452 36.8924 117.372 37.4844 116.62C38.0764 115.86 38.9044 115.48 39.9684 115.48C40.6724 115.48 41.2604 115.64 41.7324 115.96C42.2124 116.28 42.5844 116.732 42.8484 117.316L42.0324 117.808C41.8644 117.376 41.6084 117.032 41.2644 116.776C40.9204 116.512 40.4884 116.38 39.9684 116.38C39.6084 116.38 39.2844 116.448 38.9964 116.584C38.7164 116.72 38.4764 116.916 38.2764 117.172C38.0844 117.42 37.9364 117.72 37.8324 118.072C37.7284 118.416 37.6764 118.804 37.6764 119.236V120.484C37.6764 121.348 37.8764 122.024 38.2764 122.512C38.6764 123 39.2404 123.244 39.9684 123.244C40.5044 123.244 40.9524 123.108 41.3124 122.836C41.6724 122.556 41.9364 122.188 42.1044 121.732L42.9084 122.236C42.6444 122.828 42.2644 123.296 41.7684 123.64C41.2724 123.976 40.6724 124.144 39.9684 124.144Z" fill="#D1D3D4"/>
<path d="M45.7055 118.648H43.5935V117.808H48.7775V118.648H46.6655V124H45.7055V118.648Z" fill="#D1D3D4"/>
<path d="M50.0337 117.808H50.9937V118.816H51.0417C51.2017 118.424 51.4337 118.136 51.7377 117.952C52.0497 117.76 52.4217 117.664 52.8537 117.664C53.2377 117.664 53.5857 117.74 53.8977 117.892C54.2097 118.044 54.4737 118.26 54.6897 118.54C54.9137 118.82 55.0817 119.16 55.1937 119.56C55.3137 119.96 55.3737 120.408 55.3737 120.904C55.3737 121.4 55.3137 121.848 55.1937 122.248C55.0817 122.648 54.9137 122.988 54.6897 123.268C54.4737 123.548 54.2097 123.764 53.8977 123.916C53.5857 124.068 53.2377 124.144 52.8537 124.144C52.0137 124.144 51.4097 123.76 51.0417 122.992H50.9937V126.4H50.0337V117.808ZM52.5897 123.28C53.1337 123.28 53.5617 123.112 53.8737 122.776C54.1857 122.432 54.3417 121.984 54.3417 121.432V120.376C54.3417 119.824 54.1857 119.38 53.8737 119.044C53.5617 118.7 53.1337 118.528 52.5897 118.528C52.3737 118.528 52.1657 118.56 51.9657 118.624C51.7737 118.68 51.6057 118.76 51.4617 118.864C51.3177 118.968 51.2017 119.096 51.1137 119.248C51.0337 119.392 50.9937 119.548 50.9937 119.716V122.02C50.9937 122.22 51.0337 122.4 51.1137 122.56C51.2017 122.712 51.3177 122.844 51.4617 122.956C51.6057 123.06 51.7737 123.14 51.9657 123.196C52.1657 123.252 52.3737 123.28 52.5897 123.28Z" fill="#D1D3D4"/>
<path d="M61.4946 124C61.1346 124 60.8746 123.904 60.7146 123.712C60.5626 123.52 60.4666 123.28 60.4266 122.992H60.3666C60.2306 123.376 60.0066 123.664 59.6946 123.856C59.3826 124.048 59.0106 124.144 58.5786 124.144C57.9226 124.144 57.4106 123.976 57.0426 123.64C56.6826 123.304 56.5026 122.848 56.5026 122.272C56.5026 121.688 56.7146 121.24 57.1386 120.928C57.5706 120.616 58.2386 120.46 59.1426 120.46H60.3666V119.848C60.3666 119.408 60.2466 119.072 60.0066 118.84C59.7666 118.608 59.3986 118.492 58.9026 118.492C58.5266 118.492 58.2106 118.576 57.9546 118.744C57.7066 118.912 57.4986 119.136 57.3306 119.416L56.7546 118.876C56.9226 118.54 57.1906 118.256 57.5586 118.024C57.9266 117.784 58.3906 117.664 58.9506 117.664C59.7026 117.664 60.2866 117.848 60.7026 118.216C61.1186 118.584 61.3266 119.096 61.3266 119.752V123.16H62.0346V124H61.4946ZM58.7346 123.328C58.9746 123.328 59.1946 123.3 59.3946 123.244C59.5946 123.188 59.7666 123.108 59.9106 123.004C60.0546 122.9 60.1666 122.78 60.2466 122.644C60.3266 122.508 60.3666 122.36 60.3666 122.2V121.18H59.0946C58.5426 121.18 58.1386 121.26 57.8826 121.42C57.6346 121.58 57.5106 121.812 57.5106 122.116V122.368C57.5106 122.672 57.6186 122.908 57.8346 123.076C58.0586 123.244 58.3586 123.328 58.7346 123.328Z" fill="#D1D3D4"/>
<path d="M63.4048 117.808H64.3648V120.388H67.4608V117.808H68.4208V124H67.4608V121.228H64.3648V124H63.4048V117.808Z" fill="#D1D3D4"/>
<path d="M70.4595 117.808H71.3955V121.24L71.2995 122.728H71.3475L72.1155 121.408L74.5875 117.808H75.4755V124H74.5395V120.568L74.6355 119.08H74.5875L73.8195 120.4L71.3475 124H70.4595V117.808Z" fill="#D1D3D4"/>
<path d="M82.5061 124H77.5141V117.808H78.4741V123.16H81.3901V117.808H82.3501V123.16H83.3821V125.68H82.5061V124Z" fill="#D1D3D4"/>
<path d="M89.2095 124C88.8495 124 88.5895 123.904 88.4295 123.712C88.2775 123.52 88.1815 123.28 88.1415 122.992H88.0815C87.9455 123.376 87.7215 123.664 87.4095 123.856C87.0975 124.048 86.7255 124.144 86.2935 124.144C85.6375 124.144 85.1255 123.976 84.7575 123.64C84.3975 123.304 84.2175 122.848 84.2175 122.272C84.2175 121.688 84.4295 121.24 84.8535 120.928C85.2855 120.616 85.9535 120.46 86.8575 120.46H88.0815V119.848C88.0815 119.408 87.9615 119.072 87.7215 118.84C87.4815 118.608 87.1135 118.492 86.6175 118.492C86.2415 118.492 85.9255 118.576 85.6695 118.744C85.4215 118.912 85.2135 119.136 85.0455 119.416L84.4695 118.876C84.6375 118.54 84.9055 118.256 85.2735 118.024C85.6415 117.784 86.1055 117.664 86.6655 117.664C87.4175 117.664 88.0015 117.848 88.4175 118.216C88.8335 118.584 89.0415 119.096 89.0415 119.752V123.16H89.7495V124H89.2095ZM86.4495 123.328C86.6895 123.328 86.9095 123.3 87.1095 123.244C87.3095 123.188 87.4815 123.108 87.6255 123.004C87.7695 122.9 87.8815 122.78 87.9615 122.644C88.0415 122.508 88.0815 122.36 88.0815 122.2V121.18H86.8095C86.2575 121.18 85.8535 121.26 85.5975 121.42C85.3495 121.58 85.2255 121.812 85.2255 122.116V122.368C85.2255 122.672 85.3335 122.908 85.5495 123.076C85.7735 123.244 86.0735 123.328 86.4495 123.328Z" fill="#D1D3D4"/>
<path d="M31.9165 133.808H32.8765V136.388H35.9725V133.808H36.9325V140H35.9725V137.228H32.8765V140H31.9165V133.808Z" fill="#D1D3D4"/>
<path d="M41.2992 140.144C40.8752 140.144 40.4912 140.068 40.1472 139.916C39.8112 139.764 39.5192 139.548 39.2712 139.268C39.0312 138.98 38.8432 138.64 38.7072 138.248C38.5792 137.848 38.5152 137.4 38.5152 136.904C38.5152 136.416 38.5792 135.972 38.7072 135.572C38.8432 135.172 39.0312 134.832 39.2712 134.552C39.5192 134.264 39.8112 134.044 40.1472 133.892C40.4912 133.74 40.8752 133.664 41.2992 133.664C41.7152 133.664 42.0872 133.74 42.4152 133.892C42.7432 134.044 43.0232 134.256 43.2552 134.528C43.4872 134.792 43.6632 135.108 43.7832 135.476C43.9112 135.844 43.9752 136.248 43.9752 136.688V137.144H39.5232V137.432C39.5232 137.696 39.5632 137.944 39.6432 138.176C39.7312 138.4 39.8512 138.596 40.0032 138.764C40.1632 138.932 40.3552 139.064 40.5792 139.16C40.8112 139.256 41.0712 139.304 41.3592 139.304C41.7512 139.304 42.0912 139.212 42.3792 139.028C42.6752 138.844 42.9032 138.58 43.0632 138.236L43.7472 138.728C43.5472 139.152 43.2352 139.496 42.8112 139.76C42.3872 140.016 41.8832 140.144 41.2992 140.144ZM41.2992 134.468C41.0352 134.468 40.7952 134.516 40.5792 134.612C40.3632 134.7 40.1752 134.828 40.0152 134.996C39.8632 135.164 39.7432 135.364 39.6552 135.596C39.5672 135.82 39.5232 136.068 39.5232 136.34V136.424H42.9432V136.292C42.9432 135.74 42.7912 135.3 42.4872 134.972C42.1912 134.636 41.7952 134.468 41.2992 134.468Z" fill="#D1D3D4"/>
<path d="M48.3931 133.808H49.3531V136.388H52.4491V133.808H53.409V140H52.4491V137.228H49.3531V140H48.3931V133.808Z" fill="#D1D3D4"/>
<path d="M59.9477 140C59.5877 140 59.3277 139.904 59.1677 139.712C59.0157 139.52 58.9197 139.28 58.8797 138.992H58.8197C58.6837 139.376 58.4597 139.664 58.1477 139.856C57.8357 140.048 57.4637 140.144 57.0317 140.144C56.3757 140.144 55.8637 139.976 55.4957 139.64C55.1357 139.304 54.9557 138.848 54.9557 138.272C54.9557 137.688 55.1677 137.24 55.5917 136.928C56.0237 136.616 56.6917 136.46 57.5957 136.46H58.8197V135.848C58.8197 135.408 58.6997 135.072 58.4597 134.84C58.2197 134.608 57.8517 134.492 57.3557 134.492C56.9797 134.492 56.6637 134.576 56.4077 134.744C56.1597 134.912 55.9517 135.136 55.7837 135.416L55.2077 134.876C55.3757 134.54 55.6437 134.256 56.0117 134.024C56.3797 133.784 56.8437 133.664 57.4037 133.664C58.1557 133.664 58.7397 133.848 59.1557 134.216C59.5717 134.584 59.7797 135.096 59.7797 135.752V139.16H60.4877V140H59.9477ZM57.1877 139.328C57.4277 139.328 57.6477 139.3 57.8477 139.244C58.0477 139.188 58.2197 139.108 58.3637 139.004C58.5077 138.9 58.6197 138.78 58.6997 138.644C58.7797 138.508 58.8197 138.36 58.8197 138.2V137.18H57.5477C56.9957 137.18 56.5917 137.26 56.3357 137.42C56.0877 137.58 55.9637 137.812 55.9637 138.116V138.368C55.9637 138.672 56.0717 138.908 56.2877 139.076C56.5117 139.244 56.8117 139.328 57.1877 139.328Z" fill="#D1D3D4"/>
<path d="M61.8579 133.808H62.7939V137.24L62.6979 138.728H62.7459L63.5139 137.408L65.9859 133.808H66.8739V140H65.9379V136.568L66.0339 135.08H65.9859L65.2179 136.4L62.7459 140H61.8579V133.808ZM64.3899 132.848C63.9579 132.848 63.6139 132.764 63.3579 132.596C63.1019 132.42 62.8979 132.192 62.7459 131.912L62.5059 131.456L63.3459 131.084L63.7659 132.068C63.8619 132.092 63.9659 132.112 64.0779 132.128C64.1899 132.136 64.2939 132.14 64.3899 132.14C64.4859 132.14 64.5899 132.136 64.7019 132.128C64.8139 132.112 64.9179 132.092 65.0139 132.068L65.4339 131.084L66.2739 131.456L66.0339 131.912C65.8819 132.192 65.6779 132.42 65.4219 132.596C65.1659 132.764 64.8219 132.848 64.3899 132.848Z" fill="#D1D3D4"/>
<path d="M67.9886 139.16H68.6966C68.9446 138.76 69.1446 138.26 69.2966 137.66C69.4486 137.06 69.5246 136.372 69.5246 135.596V133.808H73.7126V139.16H74.7446V141.68H73.8686V140H68.8646V141.68H67.9886V139.16ZM72.7526 139.16V134.648H70.4366V135.644C70.4366 136.468 70.3646 137.172 70.2206 137.756C70.0846 138.332 69.9206 138.8 69.7286 139.16H72.7526Z" fill="#D1D3D4"/>
<path d="M78.4007 140.144C77.9767 140.144 77.5927 140.068 77.2487 139.916C76.9127 139.764 76.6207 139.548 76.3727 139.268C76.1327 138.98 75.9447 138.64 75.8087 138.248C75.6807 137.848 75.6167 137.4 75.6167 136.904C75.6167 136.416 75.6807 135.972 75.8087 135.572C75.9447 135.172 76.1327 134.832 76.3727 134.552C76.6207 134.264 76.9127 134.044 77.2487 133.892C77.5927 133.74 77.9767 133.664 78.4007 133.664C78.8167 133.664 79.1887 133.74 79.5167 133.892C79.8447 134.044 80.1247 134.256 80.3567 134.528C80.5887 134.792 80.7647 135.108 80.8847 135.476C81.0127 135.844 81.0767 136.248 81.0767 136.688V137.144H76.6247V137.432C76.6247 137.696 76.6647 137.944 76.7447 138.176C76.8327 138.4 76.9527 138.596 77.1047 138.764C77.2647 138.932 77.4567 139.064 77.6807 139.16C77.9127 139.256 78.1727 139.304 78.4607 139.304C78.8527 139.304 79.1927 139.212 79.4807 139.028C79.7767 138.844 80.0047 138.58 80.1647 138.236L80.8487 138.728C80.6487 139.152 80.3367 139.496 79.9127 139.76C79.4887 140.016 78.9847 140.144 78.4007 140.144ZM78.4007 134.468C78.1367 134.468 77.8967 134.516 77.6807 134.612C77.4647 134.7 77.2767 134.828 77.1167 134.996C76.9647 135.164 76.8447 135.364 76.7567 135.596C76.6687 135.82 76.6247 136.068 76.6247 136.34V136.424H80.0447V136.292C80.0447 135.74 79.8927 135.3 79.5887 134.972C79.2927 134.636 78.8967 134.468 78.4007 134.468Z" fill="#D1D3D4"/>
<path d="M82.6587 133.808H83.6187V136.388H86.7147V133.808H87.6747V140H86.7147V137.228H83.6187V140H82.6587V133.808Z" fill="#D1D3D4"/>
<path d="M94.2134 140C93.8534 140 93.5934 139.904 93.4334 139.712C93.2814 139.52 93.1854 139.28 93.1454 138.992H93.0854C92.9494 139.376 92.7254 139.664 92.4134 139.856C92.1014 140.048 91.7294 140.144 91.2974 140.144C90.6414 140.144 90.1294 139.976 89.7614 139.64C89.4014 139.304 89.2214 138.848 89.2214 138.272C89.2214 137.688 89.4334 137.24 89.8574 136.928C90.2894 136.616 90.9574 136.46 91.8614 136.46H93.0854V135.848C93.0854 135.408 92.9654 135.072 92.7254 134.84C92.4854 134.608 92.1174 134.492 91.6214 134.492C91.2454 134.492 90.9294 134.576 90.6734 134.744C90.4254 134.912 90.2174 135.136 90.0494 135.416L89.4734 134.876C89.6414 134.54 89.9094 134.256 90.2774 134.024C90.6454 133.784 91.1094 133.664 91.6694 133.664C92.4214 133.664 93.0054 133.848 93.4214 134.216C93.8374 134.584 94.0454 135.096 94.0454 135.752V139.16H94.7534V140H94.2134ZM91.4534 139.328C91.6934 139.328 91.9134 139.3 92.1134 139.244C92.3134 139.188 92.4854 139.108 92.6294 139.004C92.7734 138.9 92.8854 138.78 92.9654 138.644C93.0454 138.508 93.0854 138.36 93.0854 138.2V137.18H91.8134C91.2614 137.18 90.8574 137.26 90.6014 137.42C90.3534 137.58 90.2294 137.812 90.2294 138.116V138.368C90.2294 138.672 90.3374 138.908 90.5534 139.076C90.7774 139.244 91.0774 139.328 91.4534 139.328Z" fill="#D1D3D4"/>
<path d="M281.752 102V99.32H275.612V96.76L281.052 88.04H284.612V97H286.372V99.32H284.612V102H281.752ZM278.012 97H281.752V91.14H281.552L278.012 97Z" fill="#D1D3D4"/>
<path d="M293.004 102.24C291.177 102.24 289.824 101.607 288.944 100.34C288.064 99.0733 287.624 97.3 287.624 95.02C287.624 92.74 288.064 90.9667 288.944 89.7C289.824 88.4333 291.177 87.8 293.004 87.8C294.831 87.8 296.184 88.4333 297.064 89.7C297.944 90.9667 298.384 92.74 298.384 95.02C298.384 97.3 297.944 99.0733 297.064 100.34C296.184 101.607 294.831 102.24 293.004 102.24ZM293.004 99.7C293.804 99.7 294.357 99.4067 294.664 98.82C294.971 98.2333 295.124 97.4067 295.124 96.34V93.7C295.124 92.6333 294.971 91.8067 294.664 91.22C294.357 90.6333 293.804 90.34 293.004 90.34C292.204 90.34 291.651 90.6333 291.344 91.22C291.037 91.8067 290.884 92.6333 290.884 93.7V96.34C290.884 97.4067 291.037 98.2333 291.344 98.82C291.651 99.4067 292.204 99.7 293.004 99.7Z" fill="#D1D3D4"/>
<path d="M305.736 102V99.32H299.596V96.76L305.036 88.04H308.596V97H310.356V99.32H308.596V102H305.736ZM301.996 97H305.736V91.14H305.536L301.996 97Z" fill="#D1D3D4"/>
</svg>
